<svg width="125" height="62" viewBox="0 0 125 62" fill="none" xmlns="http://www.w3.org/2000/svg">
<rect width="125" height="62" rx="18" fill="#3CD0FF"/>
<g filter="url(#filter0_d_6_21)">
<path d="M34.1136 25.8409L32.3068 26.3523C32.1932 26.0511 32.0256 25.7585 31.804 25.4744C31.5881 25.1847 31.2926 24.946 30.9176 24.7585C30.5426 24.571 30.0625 24.4773 29.4773 24.4773C28.6761 24.4773 28.0085 24.6619 27.4744 25.0312C26.946 25.3949 26.6818 25.858 26.6818 26.4205C26.6818 26.9205 26.8636 27.3153 27.2273 27.6051C27.5909 27.8949 28.1591 28.1364 28.9318 28.3295L30.875 28.8068C32.0455 29.0909 32.9176 29.5256 33.4915 30.1108C34.0653 30.6903 34.3523 31.4375 34.3523 32.3523C34.3523 33.1023 34.1364 33.7727 33.7045 34.3636C33.2784 34.9545 32.6818 35.4205 31.9148 35.7614C31.1477 36.1023 30.2557 36.2727 29.2386 36.2727C27.9034 36.2727 26.7983 35.983 25.9233 35.4034C25.0483 34.8239 24.4943 33.9773 24.2614 32.8636L26.1705 32.3864C26.3523 33.0909 26.696 33.6193 27.2017 33.9716C27.7131 34.3239 28.3807 34.5 29.2045 34.5C30.142 34.5 30.8864 34.3011 31.4375 33.9034C31.9943 33.5 32.2727 33.017 32.2727 32.4545C32.2727 32 32.1136 31.6193 31.7955 31.3125C31.4773 31 30.9886 30.767 30.3295 30.6136L28.1477 30.1023C26.9489 29.8182 26.0682 29.3778 25.5057 28.7812C24.9489 28.179 24.6705 27.4261 24.6705 26.5227C24.6705 25.7841 24.8778 25.1307 25.2926 24.5625C25.7131 23.9943 26.2841 23.5483 27.0057 23.2244C27.733 22.9006 28.5568 22.7386 29.4773 22.7386C30.7727 22.7386 31.7898 23.0227 32.5284 23.5909C33.2727 24.1591 33.8011 24.9091 34.1136 25.8409ZM45.63 30.6477V22.9091H47.6413V36H45.63V33.7841H45.4936C45.1868 34.4489 44.7095 35.0142 44.0618 35.4801C43.4141 35.9403 42.5959 36.1705 41.6072 36.1705C40.7891 36.1705 40.0618 35.9915 39.4254 35.6335C38.7891 35.2699 38.2891 34.7244 37.9254 33.9972C37.5618 33.2642 37.38 32.3409 37.38 31.2273V22.9091H39.3913V31.0909C39.3913 32.0455 39.6584 32.8068 40.1925 33.375C40.7322 33.9432 41.4197 34.2273 42.255 34.2273C42.755 34.2273 43.2635 34.0994 43.7805 33.8438C44.3033 33.5881 44.7408 33.196 45.093 32.6676C45.451 32.1392 45.63 31.4659 45.63 30.6477ZM51.598 36V18.5455H53.6094V24.9886H53.7798C53.9276 24.7614 54.1321 24.4716 54.3935 24.1193C54.6605 23.7614 55.0412 23.4432 55.5355 23.1648C56.0355 22.8807 56.7116 22.7386 57.5639 22.7386C58.6662 22.7386 59.6378 23.0142 60.4787 23.5653C61.3196 24.1165 61.9759 24.8977 62.4474 25.9091C62.919 26.9205 63.1548 28.1136 63.1548 29.4886C63.1548 30.875 62.919 32.0767 62.4474 33.0938C61.9759 34.1051 61.3224 34.8892 60.4872 35.446C59.652 35.9972 58.6889 36.2727 57.598 36.2727C56.7571 36.2727 56.0838 36.1335 55.5781 35.8551C55.0724 35.571 54.6832 35.25 54.4105 34.892C54.1378 34.5284 53.9276 34.2273 53.7798 33.9886H53.5412V36H51.598ZM53.5753 29.4545C53.5753 30.4432 53.7202 31.3153 54.0099 32.071C54.2997 32.821 54.723 33.4091 55.2798 33.8352C55.8366 34.2557 56.5185 34.4659 57.3253 34.4659C58.1662 34.4659 58.8679 34.2443 59.4304 33.8011C59.9986 33.3523 60.4247 32.75 60.7088 31.9943C60.9986 31.233 61.1435 30.3864 61.1435 29.4545C61.1435 28.5341 61.0014 27.7045 60.7173 26.9659C60.4389 26.2216 60.0156 25.6335 59.4474 25.2017C58.8849 24.7642 58.1776 24.5455 57.3253 24.5455C56.5071 24.5455 55.8196 24.7528 55.2628 25.1676C54.706 25.5767 54.2855 26.1506 54.0014 26.8892C53.7173 27.6222 53.5753 28.4773 53.5753 29.4545ZM66.2315 36V22.9091H68.1747V24.9545H68.3452C68.6179 24.2557 69.0582 23.7131 69.6662 23.3267C70.2741 22.9347 71.0043 22.7386 71.8565 22.7386C72.7202 22.7386 73.4389 22.9347 74.0128 23.3267C74.5923 23.7131 75.044 24.2557 75.3679 24.9545H75.5043C75.8395 24.2784 76.3423 23.7415 77.0128 23.3438C77.6832 22.9403 78.4872 22.7386 79.4247 22.7386C80.5952 22.7386 81.5526 23.1051 82.2969 23.8381C83.0412 24.5653 83.4134 25.6989 83.4134 27.2386V36H81.402V27.2386C81.402 26.2727 81.1378 25.5824 80.6094 25.1676C80.081 24.7528 79.4588 24.5455 78.7429 24.5455C77.8224 24.5455 77.1094 24.8239 76.6037 25.3807C76.098 25.9318 75.8452 26.6307 75.8452 27.4773V36H73.7997V27.0341C73.7997 26.2898 73.5582 25.6903 73.0753 25.2358C72.5923 24.7756 71.9702 24.5455 71.2088 24.5455C70.6861 24.5455 70.1974 24.6847 69.7429 24.9631C69.294 25.2415 68.9304 25.6278 68.652 26.1222C68.3793 26.6108 68.2429 27.1761 68.2429 27.8182V36H66.2315ZM87.0909 36V22.9091H89.1023V36H87.0909ZM88.1136 20.7273C87.7216 20.7273 87.3835 20.5938 87.0994 20.3267C86.821 20.0597 86.6818 19.7386 86.6818 19.3636C86.6818 18.9886 86.821 18.6676 87.0994 18.4006C87.3835 18.1335 87.7216 18 88.1136 18C88.5057 18 88.8409 18.1335 89.1193 18.4006C89.4034 18.6676 89.5455 18.9886 89.5455 19.3636C89.5455 19.7386 89.4034 20.0597 89.1193 20.3267C88.8409 20.5938 88.5057 20.7273 88.1136 20.7273ZM98.4794 22.9091V24.6136H91.6953V22.9091H98.4794ZM93.6726 19.7727H95.6839V32.25C95.6839 32.8182 95.7663 33.2443 95.9311 33.5284C96.1016 33.8068 96.3175 33.9943 96.5788 34.0909C96.8459 34.1818 97.1271 34.2273 97.4226 34.2273C97.6442 34.2273 97.826 34.2159 97.968 34.1932C98.1101 34.1648 98.2237 34.142 98.3089 34.125L98.718 35.9318C98.5817 35.983 98.3913 36.0341 98.147 36.0852C97.9027 36.142 97.593 36.1705 97.218 36.1705C96.6499 36.1705 96.093 36.0483 95.5476 35.804C95.0078 35.5597 94.5589 35.1875 94.201 34.6875C93.8487 34.1875 93.6726 33.5568 93.6726 32.7955V19.7727Z" fill="black"/>
</g>
<defs>
<filter id="filter0_d_6_21" x="20.2614" y="18" width="82.4567" height="26.2727" filterUnits="userSpaceOnUse" color-interpolation-filters="sRGB">
<feFlood flood-opacity="0" result="BackgroundImageFix"/>
<feColorMatrix in="SourceAlpha" type="matrix" values="0 0 0 0 0 0 0 0 0 0 0 0 0 0 0 0 0 0 127 0" result="hardAlpha"/>
<feOffset dy="4"/>
<feGaussianBlur stdDeviation="2"/>
<feComposite in2="hardAlpha" operator="out"/>
<feColorMatrix type="matrix" values="0 0 0 0 0 0 0 0 0 0 0 0 0 0 0 0 0 0 0.25 0"/>
<feBlend mode="normal" in2="BackgroundImageFix" result="effect1_dropShadow_6_21"/>
<feBlend mode="normal" in="SourceGraphic" in2="effect1_dropShadow_6_21" result="shape"/>
</filter>
</defs>
</svg>
